<?xml version="1.0" standalone="no"?>
<!DOCTYPE svg PUBLIC "-//W3C//DTD SVG 20010904//EN"
 "http://www.w3.org/TR/2001/REC-SVG-20010904/DTD/svg10.dtd">
<svg version="1.0" xmlns="http://www.w3.org/2000/svg"
 width="392.000000pt" height="183.000000pt" viewBox="0 0 392.000000 183.000000"
 preserveAspectRatio="xMidYMid meet">

<g transform="translate(0.000000,183.000000) scale(0.100000,-0.100000)"
fill="#000000" stroke="none">
<path d="M2305 1659 c-200 -144 -441 -363 -520 -474 -24 -34 -78 -89 -119
-123 l-75 -61 -29 33 c-16 18 -43 57 -60 87 -17 30 -44 67 -60 82 l-29 28 -62
-46 c-35 -26 -82 -63 -104 -84 -23 -21 -72 -54 -109 -74 -36 -20 -104 -65
-150 -99 -45 -35 -123 -86 -171 -115 -104 -62 -118 -73 -325 -250 -169 -145
-251 -208 -334 -254 -29 -16 -49 -29 -45 -29 16 0 114 54 177 97 83 58 323
244 332 258 3 5 26 10 50 10 l43 0 -2 -55 c-1 -30 -11 -82 -23 -115 l-20 -59
28 27 c15 15 31 27 34 27 4 0 -11 -39 -34 -88 -47 -101 -98 -228 -98 -243 0
-25 47 20 139 135 55 68 117 138 138 155 58 48 113 38 129 -25 8 -33 16 -30
47 13 l27 38 0 -60 c0 -123 21 -130 80 -25 l35 62 7 -69 c8 -78 25 -131 37
-117 4 5 16 34 25 64 27 85 75 178 113 220 44 50 85 60 124 31 l29 -21 -7 60
c-5 50 -3 60 10 60 37 0 47 -12 47 -55 0 -52 -29 -108 -124 -240 -94 -131
-109 -155 -101 -163 15 -15 100 46 153 109 l57 68 14 -29 c8 -15 23 -31 35
-34 29 -8 107 31 205 103 46 33 91 61 99 61 21 0 9 -89 -28 -202 -17 -50 -30
-93 -30 -96 0 -3 14 7 31 24 18 16 51 71 76 123 46 99 78 151 94 151 5 0 9
-41 9 -90 l0 -91 28 15 c33 17 98 85 179 186 33 41 70 83 81 93 19 18 20 17
26 -28 10 -67 35 -145 46 -145 6 0 10 55 10 134 0 148 6 166 59 166 39 0 70
-27 157 -137 70 -87 122 -133 152 -133 19 0 14 30 -17 97 -81 171 -232 333
-310 333 -24 0 -29 -7 -61 -84 -24 -58 -53 -88 -96 -100 -19 -6 -22 -1 -28 34
-6 39 -7 40 -48 40 l-41 0 5 115 5 115 -26 -7 c-55 -14 -64 -10 -82 37 -38 96
-20 177 82 393 60 126 68 137 122 177 32 23 59 41 61 39 2 -2 18 -38 35 -80
42 -101 111 -211 216 -343 48 -59 108 -140 134 -180 62 -93 214 -358 213 -371
-1 -5 -10 -46 -22 -90 -23 -90 -37 -307 -23 -344 l10 -24 22 31 c12 17 30 63
40 102 l18 71 28 -41 c15 -22 30 -40 32 -40 2 0 9 13 14 30 l11 30 46 -48 c60
-61 111 -85 191 -90 l63 -4 -12 23 c-7 13 -28 41 -48 62 -39 40 -37 45 9 21
17 -8 33 -14 35 -12 2 3 -21 33 -51 69 -89 103 -109 154 -114 282 -3 103 -2
108 23 142 47 61 74 44 162 -104 74 -124 170 -246 288 -366 60 -60 82 -81 50
-45 -144 159 -239 289 -320 435 -87 156 -130 178 -203 103 -22 -24 -41 -46
-41 -50 0 -4 -18 -17 -41 -28 -22 -12 -54 -34 -71 -51 -17 -16 -38 -29 -47
-29 -10 0 -51 63 -116 181 -70 127 -138 231 -226 349 -157 208 -199 279 -240
400 -17 52 -32 96 -33 97 -1 2 -47 -29 -101 -68z m-855 -546 c19 -32 50 -77
68 -102 l34 -44 -48 -48 c-33 -33 -50 -45 -55 -37 -9 15 -5 21 -51 -72 -39
-77 -130 -200 -150 -200 -10 0 -8 51 8 168 7 48 -2 52 -69 28 -37 -14 -37 -13
-31 8 15 46 24 93 24 129 0 31 7 46 33 70 40 38 190 157 197 157 3 0 21 -26
40 -57z"/>
</g>
</svg>
