<?xml version="1.0" standalone="no"?>
<!DOCTYPE svg PUBLIC "-//W3C//DTD SVG 20010904//EN"
 "http://www.w3.org/TR/2001/REC-SVG-20010904/DTD/svg10.dtd">
<svg version="1.0" xmlns="http://www.w3.org/2000/svg"
 width="137.000000pt" height="120.000000pt" viewBox="0 0 137.000000 120.000000"
 preserveAspectRatio="xMidYMid meet">

<g transform="translate(0.000000,120.000000) scale(0.100000,-0.100000)"
fill="#000000" stroke="none">
<path d="M594 1135 c-69 -15 -152 -51 -203 -90 l-35 -25 37 0 c22 0 37 -5 37
-12 0 -16 -111 -128 -127 -128 -6 0 -13 16 -15 35 l-3 36 -34 -53 c-41 -63
-77 -162 -86 -240 l-7 -58 69 0 69 0 32 65 c17 36 35 65 40 65 4 0 19 -21 32
-47 l25 -48 3 39 c5 55 0 62 -68 96 -33 17 -60 32 -60 35 0 3 28 19 63 37 48
25 79 34 136 38 l75 5 26 52 c39 81 43 81 78 16 l31 -58 1 56 0 56 -65 32
c-36 17 -65 35 -65 39 0 4 26 22 58 39 62 35 53 39 -44 18z"/>
<path d="M712 1084 l3 -69 62 -30 c35 -16 63 -34 63 -40 0 -5 -21 -22 -48 -37
l-47 -27 52 -1 52 0 30 65 c17 36 34 65 38 65 5 0 23 -30 41 -68 26 -55 32
-79 32 -135 l0 -67 65 -32 c36 -18 65 -36 65 -40 0 -4 -26 -21 -57 -37 l-58
-30 57 -1 58 0 36 72 36 72 34 -64 34 -65 -6 50 c-9 72 -45 173 -85 233 l-34
53 -3 -36 c-2 -19 -6 -35 -10 -35 -9 0 -132 123 -132 132 0 4 16 8 35 10 l36
3 -53 34 c-63 41 -162 77 -241 86 l-58 7 3 -68z"/>
<path d="M628 829 l-56 -28 -52 25 c-29 14 -54 23 -57 21 -2 -3 7 -28 21 -56
l25 -52 -25 -56 c-14 -30 -23 -57 -21 -60 3 -2 29 8 59 23 l54 26 53 -27 c29
-14 55 -24 58 -22 2 3 -8 29 -22 58 l-27 52 28 59 c15 32 26 59 23 61 -2 2
-30 -9 -61 -24z"/>
<path d="M738 833 c47 -91 47 -89 19 -154 -14 -32 -24 -59 -22 -59 1 0 28 11
58 25 l56 24 56 -24 c30 -14 58 -25 60 -25 3 0 -6 22 -20 50 -14 27 -25 56
-25 65 0 9 11 38 25 65 14 28 21 50 15 50 -6 0 -33 -11 -60 -25 l-50 -25 -50
25 c-59 30 -74 32 -62 8z"/>
<path d="M281 553 c-12 -27 -30 -59 -38 -72 l-16 -25 -33 65 -34 64 6 -50 c9
-72 45 -173 85 -233 l34 -53 3 36 c2 19 6 35 10 35 9 0 132 -123 132 -132 0
-4 -16 -8 -35 -10 l-36 -3 53 -34 c63 -41 162 -77 241 -86 l58 -7 -3 68 -3 69
-62 30 c-35 17 -63 35 -63 40 0 6 23 21 51 35 l52 25 -49 3 c-55 4 -70 -10
-100 -86 -9 -24 -21 -41 -27 -39 -6 2 -26 32 -44 68 -28 54 -33 75 -33 132 l0
67 -65 32 c-36 18 -65 35 -65 38 0 3 28 20 63 37 l62 32 -61 0 -60 1 -23 -47z"/>
<path d="M1095 530 c-19 -38 -37 -70 -40 -70 -3 0 -18 26 -34 58 l-30 57 -1
-55 0 -56 65 -32 c36 -17 65 -36 65 -40 0 -5 -31 -23 -68 -41 -55 -25 -82 -31
-135 -31 l-66 0 -31 -65 c-17 -36 -34 -65 -38 -65 -4 0 -21 26 -39 58 l-32 57
-1 -57 0 -57 65 -31 c35 -17 66 -34 69 -39 3 -4 -20 -20 -50 -35 -30 -16 -53
-30 -51 -32 3 -3 36 2 75 10 76 16 157 50 211 91 l35 25 -37 0 c-20 0 -37 4
-37 8 0 9 123 132 132 132 4 0 8 -16 10 -35 l3 -36 34 53 c41 63 77 162 86
241 l7 57 -66 0 -66 0 -35 -70z"/>
<path d="M460 569 c0 -5 11 -32 25 -59 l25 -50 -25 -50 c-14 -27 -25 -54 -25
-60 0 -6 22 1 50 15 27 14 56 25 65 25 9 0 38 -11 65 -25 28 -14 50 -23 50
-20 0 2 -11 30 -25 60 l-24 56 24 56 c14 30 25 57 25 59 0 2 -26 -8 -58 -22
l-59 -25 -56 25 c-32 14 -57 20 -57 15z"/>
<path d="M730 575 c0 -2 12 -29 27 -60 l27 -55 -27 -55 c-15 -31 -27 -57 -27
-60 0 -2 24 7 53 20 64 30 70 30 132 0 27 -13 50 -23 52 -22 1 2 -9 25 -22 52
-30 62 -30 68 0 133 13 28 22 52 20 52 -3 0 -29 -12 -60 -27 l-55 -27 -55 27
c-57 28 -65 30 -65 22z"/>
</g>
</svg>
