<?xml version="1.0" standalone="no"?>
<!DOCTYPE svg PUBLIC "-//W3C//DTD SVG 20010904//EN"
 "http://www.w3.org/TR/2001/REC-SVG-20010904/DTD/svg10.dtd">
<svg version="1.0" xmlns="http://www.w3.org/2000/svg"
 width="199.000000pt" height="57.000000pt" viewBox="0 0 199.000000 57.000000"
 preserveAspectRatio="xMidYMid meet">

<g transform="translate(0.000000,57.000000) scale(0.100000,-0.100000)"
fill="#000000" stroke="none">
<path d="M153 185 c-44 -44 -56 -59 -33 -44 19 13 43 34 54 47 10 13 24 21 32
18 13 -5 31 30 21 41 -3 2 -36 -25 -74 -62z"/>
<path d="M454 240 c-18 -4 -45 -17 -62 -29 -39 -27 -48 -27 -68 4 -9 14 -21
25 -26 25 -6 0 -3 -10 6 -22 28 -39 29 -48 10 -64 -19 -16 21 5 91 47 27 16
35 18 35 7 0 -8 -9 -23 -21 -34 -11 -10 -26 -28 -32 -39 -9 -18 -9 -19 8 -5
10 8 50 31 89 50 84 41 101 72 39 69 -21 -2 -52 -6 -69 -9z"/>
<path d="M706 229 c8 -8 14 -21 14 -27 0 -6 7 -9 15 -6 23 9 18 -8 -17 -57
l-33 -44 37 28 c20 15 42 27 47 27 6 0 21 20 33 45 16 32 25 42 34 34 8 -6 13
-5 17 4 4 12 -10 14 -78 13 -75 -1 -82 -3 -69 -17z"/>
<path d="M952 217 c-9 -32 -15 -87 -8 -87 5 0 66 100 66 108 0 4 -11 9 -24 10
-20 1 -26 -5 -34 -31z"/>
<path d="M1328 243 c-10 -2 -18 -9 -18 -16 0 -6 -10 -21 -22 -34 -38 -40 -4
-25 37 17 38 39 38 42 3 33z"/>
<path d="M1425 240 c-18 -8 -17 -9 8 -9 16 -1 26 3 22 9 -3 6 -7 10 -8 9 -1 0
-11 -4 -22 -9z"/>
<path d="M1490 243 c0 -5 9 -18 20 -28 12 -11 18 -25 15 -34 -4 -11 0 -10 17
4 13 11 25 22 28 24 3 2 -2 1 -10 -1 -8 -3 -27 6 -42 20 -16 14 -28 21 -28 15z"/>
<path d="M1611 233 c-19 -9 -29 -19 -23 -21 6 -2 8 -11 5 -19 -5 -12 -2 -15
11 -10 10 4 19 1 22 -6 6 -17 44 -19 49 -4 7 16 -9 70 -21 74 -5 1 -24 -5 -43
-14z"/>
<path d="M1730 214 c-22 -61 -22 -60 -9 -46 18 17 59 15 82 -5 19 -17 20 -17
9 2 -6 11 -24 33 -41 49 l-30 29 -11 -29z"/>
<path d="M260 222 c0 -5 7 -15 15 -22 8 -7 15 -8 15 -2 0 5 -7 15 -15 22 -8 7
-15 8 -15 2z"/>
<path d="M656 205 c9 -14 19 -24 21 -21 7 7 -16 46 -28 46 -5 0 -2 -11 7 -25z"/>
<path d="M1169 199 c-16 -18 -44 -35 -62 -40 -29 -7 -28 -8 13 -6 35 2 47 7
56 25 6 12 20 29 30 37 13 10 14 14 6 15 -8 0 -27 -14 -43 -31z"/>
<path d="M1835 201 c23 -26 82 -71 72 -54 -4 6 -26 26 -50 44 -28 23 -36 26
-22 10z"/>
<path d="M610 188 c0 -9 5 -20 10 -23 13 -8 13 5 0 25 -8 13 -10 13 -10 -2z"/>
<path d="M1327 156 c-15 -22 -15 -23 9 -23 17 0 24 5 24 18 0 28 -16 31 -33 5z"/>
<path d="M1475 160 c-3 -6 1 -7 9 -4 18 7 21 14 7 14 -6 0 -13 -4 -16 -10z"/>
<path d="M460 135 c-19 -23 -7 -27 46 -13 70 17 76 28 17 28 -33 0 -55 -5 -63
-15z"/>
<path d="M1482 130 c-18 -11 -32 -22 -32 -24 0 -8 60 15 66 26 11 18 -2 17
-34 -2z"/>
<path d="M1586 125 c-11 -8 -17 -18 -13 -21 10 -11 37 4 37 21 0 18 0 18 -24
0z"/>
</g>
</svg>
